<?xml version="1.0" encoding="utf-8"?>
<svg width="100%" height="100%" viewBox="0 0 1024 1024" version="1.1" style="fill-rule:evenodd;clip-rule:evenodd;stroke-linecap:round;stroke-linejoin:round;stroke-miterlimit:1.5;" xmlns="http://www.w3.org/2000/svg">
  <defs/>
  <path d="M80.857,136.863L41.954,75.33C126.082,55.762 280.939,54.792 369.283,102.268C534.05,198.145 604.001,338.802 652.136,514.184C665.095,561.4 667.22,635.318 661.014,680.084C645.661,790.822 612.616,814.587 564.677,891.713C426.058,913.22 181.792,964.296 70.533,942.024C211.993,816.183 322.457,632.469 283.845,530.648C283.845,530.648 249.749,429.98 80.857,136.863Z" style="paint-order: fill; fill: none;"/>
  <g transform="matrix(0.981386, 0, 0, 0.990855, -42.719398, 39.6133)">
    <path d="M125.182,97.462C286.537,393.294 328.171,491.248 328.171,491.248C368.153,574.745 256.318,776.782 114.859,902.624C226.117,924.896 485,881.367 623.62,859.86C671.558,782.734 689.986,751.421 705.339,640.683C711.546,595.918 709.42,521.999 696.461,474.784C648.326,299.402 578.375,158.744 413.609,62.867C325.265,15.391 170.408,16.361 86.279,35.93L125.182,97.462Z" style="stroke-width: 40.56px; stroke: rgb(23, 0, 24); fill: rgb(255, 255, 255);"/>
  </g>
  <g transform="matrix(0.981386,0,0,0.990855,0.780922,0.573235)">
    <path d="M663.521,654.694C755.381,642.719 745.788,706.365 954.889,673.188C1023.14,662.359 1027.19,843.941 983.723,910.402C983.723,910.402 912.586,1029.63 589.863,898.748C616.967,852.068 618.582,842.887 636.486,785.856C637.297,783.272 641.361,774.03 657.961,706.207C661.399,692.157 662.008,674.647 663.521,654.694Z" style="fill: none;"/>
  </g>
  <path d="M 651.951 649.28 C 650.466 669.051 649.869 686.401 646.495 700.322 C 630.204 767.525 626.215 776.682 625.419 779.243 C 607.849 835.752 595.295 850.396 568.695 896.65 C 908.526 1025.95 966.193 930.043 966.193 902.65 C 969.465 829.292 1004.876 656.875 937.896 667.605 C 732.687 700.479 742.101 637.415 651.951 649.28" style="stroke-width: 40.56px; stroke: rgb(23, 0, 24); fill: rgb(255, 255, 255);"/>
</svg>